<svg xmlns="http://www.w3.org/2000/svg" width="24" height="24" fill="none">
  <g clip-path="url(#a)">
    <path fill="#F6F6F6" d="m0 0 12.257 12.129L24 24V0H0Z"/>
    <path fill="#F6F6F6" d="m3.343 3.171 8.957 8.872 8.443 8.614h-17.4V3.171Z"/>
    <path fill="#4F2EE8" d="m20.8 20.714-8.958-8.872L3.4 3.228h17.4v17.486Z"/>
    <path fill="#4F2EE8" d="M6.943 6.771 11.7 11.53l5.443 5.442h-10.2v-10.2Z"/>
    <path fill="#F6F6F6" d="M6.943 6.771 11.7 11.53l5.443 5.442v-10.2h-10.2Z"/>
  </g>
  <defs>
    <clipPath id="a">
      <path fill="#fff" d="M0 0h24v24H0z"/>
    </clipPath>
    <symbol id="icon-logo" viewBox="0 0 32 32">
<path fill="#f6f6f6" style="fill: var(--color1, #f6f6f6)" d="M0 0l16.343 16.171 15.657 15.829v-32h-32z"></path>
<path fill="#f6f6f6" style="fill: var(--color1, #f6f6f6)" d="M4.457 4.229l11.943 11.829 11.257 11.486h-23.2v-23.314z"></path>
<path fill="#4f2ee8" style="fill: var(--color2, #4f2ee8)" d="M27.733 27.618l-11.943-11.829-11.257-11.486h23.2v23.314z"></path>
<path fill="#4f2ee8" style="fill: var(--color2, #4f2ee8)" d="M9.257 9.029l13.6 13.6h-13.6v-13.6z"></path>
<path fill="#f6f6f6" style="fill: var(--color1, #f6f6f6)" d="M9.257 9.029l13.6 13.6v-13.6h-13.6z"></path>
</symbol>
<symbol id="icon-cart" viewBox="0 0 25 32">
  <path d="M11.47 1.268c-0.839 0.142-1.84 0.562-2.512 1.056-0.978 0.72-1.753 1.78-2.135 2.923-0.226 0.67-0.274 1.035-0.299 2.229l-0.021 1.108-4.784 0.025-0.276 0.135c-0.336 0.165-0.613 0.459-0.747 0.789l-0.096 0.236-0.012 8.276c-0.009 5.732 0.002 8.412 0.032 8.722 0.14 1.385 0.875 2.581 2.052 3.342 0.572 0.37 1.278 0.604 2.030 0.672 0.235 0.021 3.657 0.037 7.742 0.037s7.508-0.016 7.742-0.037c1.092-0.1 2.044-0.537 2.795-1.287 0.74-0.741 1.18-1.673 1.287-2.727 0.030-0.309 0.041-2.99 0.032-8.722l-0.012-8.276-0.096-0.236c-0.133-0.331-0.411-0.624-0.747-0.789l-0.276-0.135-4.784-0.025-0.021-1.108c-0.018-0.921-0.037-1.179-0.112-1.524-0.176-0.82-0.45-1.476-0.891-2.133-0.907-1.356-2.364-2.292-3.982-2.555-0.462-0.075-1.456-0.073-1.909 0.004zM13.337 4.29c0.809 0.258 1.451 0.836 1.812 1.634 0.203 0.443 0.24 0.716 0.24 1.74l0.002 0.923h-5.892l0.002-0.923c0-1.104 0.041-1.344 0.318-1.899 0.402-0.804 1.216-1.415 2.101-1.575 0.372-0.066 1.044-0.020 1.417 0.1zM6.519 12.476c0.014 0.875 0.018 0.908 0.124 1.136 0.231 0.494 0.704 0.837 1.223 0.891 0.516 0.053 1.086-0.228 1.374-0.676 0.212-0.331 0.258-0.594 0.258-1.476v-0.779h5.892v0.779c0 0.571 0.016 0.846 0.064 1.028 0.283 1.088 1.595 1.49 2.421 0.743 0.412-0.372 0.5-0.679 0.5-1.751l0.002-0.798h2.946l-0.021 15.161-0.112 0.236c-0.14 0.302-0.43 0.59-0.731 0.732l-0.236 0.11h-15.556l-0.236-0.11c-0.3-0.142-0.59-0.43-0.731-0.732l-0.112-0.236-0.021-15.161h2.939l0.014 0.903z"></path>
</symbol>
<symbol id="icon-user-fill" viewBox="0 0 32 32">
<path d="M5.333 29.333c0-2.829 1.124-5.542 3.124-7.542s4.713-3.124 7.542-3.124c2.829 0 5.542 1.124 7.542 3.124s3.124 4.713 3.124 7.542h-21.333zM16 17.333c-4.42 0-8-3.58-8-8s3.58-8 8-8c4.42 0 8 3.58 8 8s-3.58 8-8 8z"></path>
</symbol>
<symbol id="icon-cart-fill" viewBox="0 0 32 32">
<path d="M25.333 9.333h-4v-1.333c0-1.415-0.562-2.771-1.562-3.771s-2.357-1.562-3.771-1.562c-1.414 0-2.771 0.562-3.771 1.562s-1.562 2.357-1.562 3.771v1.333h-4c-0.354 0-0.693 0.14-0.943 0.391s-0.391 0.589-0.391 0.943v14.667c0 1.061 0.421 2.078 1.172 2.828s1.768 1.172 2.828 1.172h13.333c1.061 0 2.078-0.421 2.828-1.172s1.172-1.768 1.172-2.828v-14.667c0-0.354-0.14-0.693-0.391-0.943s-0.589-0.391-0.943-0.391zM13.333 8c0-0.707 0.281-1.386 0.781-1.886s1.178-0.781 1.886-0.781c0.707 0 1.385 0.281 1.886 0.781s0.781 1.178 0.781 1.886v1.333h-5.333v-1.333zM24 25.333c0 0.354-0.14 0.693-0.391 0.943s-0.589 0.391-0.943 0.391h-13.333c-0.354 0-0.693-0.14-0.943-0.391s-0.391-0.589-0.391-0.943v-13.333h2.667v1.333c0 0.354 0.14 0.693 0.391 0.943s0.589 0.391 0.943 0.391c0.354 0 0.693-0.14 0.943-0.391s0.391-0.589 0.391-0.943v-1.333h5.333v1.333c0 0.354 0.14 0.693 0.39 0.943s0.589 0.391 0.943 0.391 0.693-0.14 0.943-0.391c0.25-0.25 0.391-0.589 0.391-0.943v-1.333h2.667v13.333z"></path>
</symbol>
<symbol id="icon-burger" viewBox="0 0 32 32">
<path stroke-width="2.2857" stroke-miterlimit="4" stroke-linecap="round" stroke-linejoin="round" d="M22.667 13.333h-18.667"></path>
<path stroke-width="2.2857" stroke-miterlimit="4" stroke-linecap="round" stroke-linejoin="round" d="M28 8h-24"></path>
<path stroke-width="2.2857" stroke-miterlimit="4" stroke-linecap="round" stroke-linejoin="round" d="M28 18.667h-24"></path>
<path stroke-width="2.2857" stroke-miterlimit="4" stroke-linecap="round" stroke-linejoin="round" d="M22.667 24h-18.667"></path>
</symbol>
<symbol id="icon-x-close" viewBox="0 0 32 32">
<path stroke-width="3.3333" stroke-miterlimit="4" stroke-linecap="round" stroke-linejoin="round" d="M24 8l-16 16M8 8l16 16"></path>
</symbol>
  </defs>
</svg>
