<svg xmlns="http://www.w3.org/2000/svg" width="24" height="24" fill="none"><g clip-path="url('#a')"><path fill="#F6F6F6" d="m0 0 12.257 12.129L24 24V0H0Z"/><path fill="#F6F6F6" d="m3.343 3.171 8.957 8.872 8.443 8.614h-17.4V3.171Z"/><path fill="#4F2EE8" d="m20.8 20.714-8.958-8.872L3.4 3.228h17.4v17.486Z"/><path fill="#4F2EE8" d="M6.943 6.771 11.7 11.53l5.443 5.442h-10.2v-10.2Z"/><path fill="#F6F6F6" d="M6.943 6.771 11.7 11.53l5.443 5.442v-10.2h-10.2Z"/></g><defs><symbol id="icon-logo" viewBox="0 0 32 32"><path fill="#f6f6f6" style="fill:var(--color1,#f6f6f6)" d="m0 0 16.343 16.171L32 32V0H0z"/><path fill="#f6f6f6" style="fill:var(--color1,#f6f6f6)" d="M4.457 4.229 16.4 16.058l11.257 11.486h-23.2V4.23z"/><path fill="#4f2ee8" style="fill:var(--color2,#4f2ee8)" d="M27.733 27.618 15.79 15.789 4.533 4.303h23.2v23.314z"/><path fill="#4f2ee8" style="fill:var(--color2,#4f2ee8)" d="m9.257 9.029 13.6 13.6h-13.6v-13.6z"/><path fill="#f6f6f6" style="fill:var(--color1,#f6f6f6)" d="m9.257 9.029 13.6 13.6v-13.6h-13.6z"/></symbol><symbol id="icon-cart" viewBox="0 0 25 32"><path d="M11.47 1.268c-.839.142-1.84.562-2.512 1.056a6.113 6.113 0 0 0-2.135 2.923c-.226.67-.274 1.035-.299 2.229l-.021 1.108-4.784.025-.276.135a1.561 1.561 0 0 0-.747.789L.6 9.769l-.012 8.276c-.009 5.732.002 8.412.032 8.722a4.463 4.463 0 0 0 2.052 3.342c.572.37 1.278.604 2.03.672.235.021 3.657.037 7.742.037s7.508-.016 7.742-.037c1.092-.1 2.044-.537 2.795-1.287a4.425 4.425 0 0 0 1.287-2.727c.03-.309.041-2.99.032-8.722l-.012-8.276-.096-.236a1.553 1.553 0 0 0-.747-.789l-.276-.135-4.784-.025-.021-1.108c-.018-.921-.037-1.179-.112-1.524a5.852 5.852 0 0 0-.891-2.133 5.967 5.967 0 0 0-3.982-2.555c-.462-.075-1.456-.073-1.909.004zm1.867 3.022a2.962 2.962 0 0 1 1.812 1.634c.203.443.24.716.24 1.74l.002.923H9.499l.002-.923c0-1.104.041-1.344.318-1.899A3.006 3.006 0 0 1 11.92 4.19c.372-.066 1.044-.02 1.417.1zm-6.818 8.186c.014.875.018.908.124 1.136.231.494.704.837 1.223.891.516.053 1.086-.228 1.374-.676.212-.331.258-.594.258-1.476v-.779h5.892v.779c0 .571.016.846.064 1.028.283 1.088 1.595 1.49 2.421.743.412-.372.5-.679.5-1.751l.002-.798h2.946l-.021 15.161-.112.236c-.14.302-.43.59-.731.732l-.236.11H4.667l-.236-.11c-.3-.142-.59-.43-.731-.732l-.112-.236-.021-15.161h2.939l.014.903z"/></symbol><symbol id="icon-user-fill" viewBox="0 0 32 32"><path d="M5.333 29.333a10.666 10.666 0 0 1 21.332 0H5.332zm10.667-12c-4.42 0-8-3.58-8-8s3.58-8 8-8 8 3.58 8 8-3.58 8-8 8z"/></symbol><symbol id="icon-cart-fill" viewBox="0 0 32 32"><path d="M25.333 9.333h-4V8a5.332 5.332 0 1 0-10.666 0v1.333h-4a1.335 1.335 0 0 0-1.334 1.334v14.667a4.003 4.003 0 0 0 4 4h13.333a4.003 4.003 0 0 0 4-4V10.667a1.335 1.335 0 0 0-1.334-1.334zM13.333 8a2.668 2.668 0 0 1 5.334 0v1.333h-5.333V8zM24 25.333a1.335 1.335 0 0 1-1.334 1.334H9.333a1.335 1.335 0 0 1-1.334-1.334V12h2.667v1.333a1.335 1.335 0 0 0 2.277.943c.25-.251.391-.589.391-.943V12h5.333v1.333a1.333 1.333 0 1 0 2.667 0V12h2.667v13.333z"/></symbol><symbol id="icon-burger" viewBox="0 0 32 32"><path stroke-width="2.286" stroke-linecap="round" stroke-linejoin="round" d="M22.667 13.333H4M28 8H4M28 18.667H4M22.667 24H4"/></symbol><symbol id="icon-x-close" viewBox="0 0 32 32"><path stroke-width="3.333" stroke-linecap="round" stroke-linejoin="round" d="M24 8 8 24M8 8l16 16"/></symbol><clipPath id="a"><path fill="#fff" d="M0 0h24v24H0z"/></clipPath></defs></svg>